<svg width="36" height="36" viewBox="0 0 1024 1024" xmlns="http://www.w3.org/2000/svg" fill="#fff">
  <!-- 基于提供的日历设计 -->
  <path d="M109.714286 950.857143h804.571428V365.714286H109.714286v585.142857zM329.142857 256V91.428571q0-8-5.142857-13.142857t-13.142857-5.142857h-36.571429q-8 0-13.142857 5.142857t-5.142857 13.142857v164.571429q0 8 5.142857 13.142857t13.142857 5.142857h36.571429q8 0 13.142857-5.142857t5.142857-13.142857z m438.857143 0V91.428571q0-8-5.142857-13.142857t-13.142857-5.142857h-36.571429q-8 0-13.142857 5.142857t-5.142857 13.142857v164.571429q0 8 5.142857 13.142857t13.142857 5.142857h36.571429q8 0 13.142857-5.142857t5.142857-13.142857z m219.428571-36.571429v731.428572q0 29.714286-21.714285 51.428571t-51.428572 21.714286H109.714286q-29.714286 0-51.428572-21.714286t-21.714285-51.428571V219.428571q0-29.714286 21.714285-51.428571t51.428572-21.714286h73.142857v-54.857143q0-37.714286 26.857143-64.571428T274.285714 0h36.571429q37.714286 0 64.571428 26.857143t26.857143 64.571428v54.857143h219.428572v-54.857143q0-37.714286 26.857143-64.571428t64.571428-26.857143h36.571429q37.714286 0 64.571428 26.857143t26.857143 64.571428v54.857143h73.142857q29.714286 0 51.428572 21.714286t21.714285 51.428571z" 
        fill="#000"/>
  <!-- 日历内容区域白色背景 -->
  <rect x="109.714286" y="365.714286" width="804.571428" height="585.142857" fill="white"/>
  <!-- 日期数字显示在日历下半部分中央 -->
  <text x="512" y="700" 
        font-family="-apple-system, SF Pro Display, Helvetica, Arial, sans-serif" 
        font-size="600" 
        font-weight="700"
        text-anchor="middle" 
        dominant-baseline="middle"
        fill="#000">29</text>
</svg>